<svg preserveAspectRatio="none" width="100%" height="100%" overflow="visible" style="display: block;" viewBox="0 0 206 60" fill="none" xmlns="http://www.w3.org/2000/svg">
<g id="Coca Cola Logo">
<g id="Vector">
<path d="M88.8493 44.8932C84.3097 41.965 78.1488 41.4512 68.2131 44.2114C57.6209 46.7037 54.0893 48.3014 49.4513 45.0941C47.6695 43.5186 47.0307 40.9818 47.5077 37.3277C48.6141 31.3709 51.604 25.6385 56.915 19.2798C59.8793 15.972 62.6292 13.1334 66.2601 11.9935C69.0429 11.2784 68.7827 13.4682 68.446 13.7814C68.0907 13.7814 67.4938 13.8375 67.0325 14.1389C66.6581 14.4296 65.6304 15.3684 65.5752 16.6312C65.4956 18.5644 67.4935 18.162 68.3553 17.1006C69.2841 15.9045 70.6569 13.6141 69.5771 11.4793C69.1245 10.7195 68.3425 10.1944 67.3715 10.0156C64.0467 9.82529 60.9503 11.4123 58.0925 13.1668C51.8427 17.514 46.8433 23.5376 44.0144 30.1312C42.3836 34.1094 40.9086 39.8081 43.1194 44.4464C44.8298 47.6646 48.3805 49.3741 52.6168 49.0166C55.588 48.7041 59.1807 47.7425 61.5971 47.162C64.0136 46.5803 76.3826 42.3231 80.4467 49.7328C80.4467 49.7328 81.7981 47.1059 85.1756 47.0499C87.9523 46.7933 91.9582 47.8548 94.8752 50C93.9033 48.5366 91.1479 46.3797 88.8493 44.8932Z" fill="var(--fill-0, #717171)"/>
<path d="M69.4743 20.0285C67.1609 18.5087 62.5112 21.4142 58.7869 26.3981C55.3813 30.8687 53.9108 36.0646 55.5112 38.4673C57.8918 41.2945 62.3114 37.1822 64.1908 34.981L64.4333 34.7237C65.7114 33.3491 66.6987 31.6951 67.6545 30.108C67.6545 30.108 68.5329 28.6552 68.5749 28.588C69.1178 28.4878 69.7717 28.3313 70.5086 28.1189C70.498 28.1522 67.6893 32.8794 67.9758 35.2258C68.0651 35.9417 67.997 38.5566 70.5467 39.3499C73.945 39.9202 76.6586 37.2825 79.0525 34.9357C79.0525 34.9357 79.4605 34.5449 79.6912 34.3218C79.6328 34.5558 79.5567 34.868 79.5567 34.868C78.5618 38.3325 79.9029 39.0595 80.7418 39.3276C83.2771 40.0657 86.3059 36.3776 86.3158 36.3776C86.2371 37.5393 86.0076 38.5003 87.2307 39.2716C88.3849 39.6854 89.5532 39.0544 90.4414 38.4621C93.6401 36.2049 96.217 32.6718 98.2984 29.6179H96.9707C96.955 29.6179 93.6947 34.3498 91.5775 35.3782C91.5742 35.3782 91.1888 35.5763 90.9669 35.4196C90.692 35.1849 90.8004 34.6967 90.9701 34.351C90.9808 34.3286 99.1447 20.1506 99.1447 20.1506H95.2901C95.2901 20.1506 94.8691 20.8327 94.8348 20.8775C94.8089 20.8552 94.7471 20.7379 94.7044 20.6817C92.3162 17.374 86.9081 22.4619 82.8365 28.3622C81.269 30.631 79.2732 33.1854 77.2038 35.0293C77.2038 35.0293 74.1379 37.8432 72.8281 35.8215C72.3492 34.972 72.4966 33.7301 72.7666 32.9146C74.2918 28.5672 76.9198 24.622 79.9105 22.2415C80.7546 21.5826 81.6723 21.3921 82.1275 21.6715C82.5616 21.929 82.6316 22.5654 82.3571 23.0014C81.6606 22.9791 81.1024 23.191 80.6489 23.6604C79.7553 24.5992 79.4448 25.5046 79.7289 26.354C81.1092 28.3208 83.8619 24.4317 83.7288 22.0626C83.6812 21.2131 83.2288 20.4087 82.5532 20.0172C81.5465 19.414 80.0108 19.5702 79.017 20.0511C77.6864 20.5538 75.5806 22.3081 74.3513 23.6717C72.8037 25.3818 70.1494 27.2814 69.3195 27.0686C69.5908 26.3421 71.8327 21.7492 69.4743 20.0285ZM88.0581 26.823C88.808 25.7838 90.9904 23.0011 91.5225 22.5318C93.3119 20.9555 94.0271 21.6491 94.089 22.1404C92.419 25.1353 90.448 28.5663 88.5948 31.6508C88.5986 31.6398 88.0148 32.5336 88.0148 32.5336C87.1963 33.7848 86.3722 34.8578 85.028 35.6063C84.8363 35.6627 84.5203 35.6851 84.31 35.528C84.0568 35.3603 83.9569 35.0809 83.9855 34.7903C84.0661 33.8295 85.043 30.891 88.0581 26.823ZM67.0886 28.622C67.0886 28.622 67.0549 28.723 67.0384 28.756C67.0342 28.756 65.3577 31.4935 65.3577 31.4935C64.346 32.846 63.0829 34.5451 61.5039 35.3605C61.0359 35.5169 60.3888 35.6178 60.0591 35.2046C59.3602 34.3663 59.7204 33.2039 60.013 32.2654L60.1167 31.9301C60.9558 29.6506 62.287 27.6387 63.5829 25.7724C63.5991 25.7614 63.6354 25.7502 63.6485 25.7502C63.6517 25.7614 63.6569 25.7614 63.659 25.7838C64.4722 27.3481 65.9968 28.0742 67.1371 28.41C67.144 28.41 67.1514 28.4211 67.1514 28.4435C67.1516 28.4768 67.133 28.5219 67.0886 28.622ZM68.6767 25.3928C68.6693 25.4151 67.9301 27.1137 67.9301 27.1137C67.8232 27.203 67.6542 27.1584 67.4605 27.1137L67.1287 27.0575C66.0867 26.7336 65.3007 26.0407 65.0584 25.2138C64.7242 23.6045 66.0972 22.3417 66.702 21.8838C67.2824 21.4811 68.1848 21.2688 68.7088 21.6825C69.0319 22.0626 69.1544 22.5541 69.1544 23.0908C69.1545 23.8169 68.9306 24.6326 68.6767 25.3928ZM117.407 30.5777C117.035 29.7732 116.153 29.2591 115.212 29.3148C112.159 29.5944 109.172 32.1088 107.604 35.7181C106.781 37.5734 106.332 39.1042 106.037 41.5404C106.987 40.4455 108.924 38.6464 111.121 37.6629C111.121 37.6629 111.421 35.3274 112.946 33.2487C113.523 32.3879 114.677 31.0023 115.974 31.3709C117.107 31.751 116.709 34.8914 115.203 37.9304C114.089 40.1658 112.384 42.4014 110.659 43.9432C109.134 45.2395 106.877 46.804 104.903 45.5973C103.659 44.86 103.025 43.3173 103.159 41.3283C103.753 35.685 106.319 30.8795 109.99 25.4038C113.776 20.3191 117.949 15.1003 123.571 12.3172C124.717 11.7362 125.779 11.6021 126.697 11.9597C126.697 11.9597 121.42 14.8653 118.904 20.2407C118.264 21.6043 117.374 23.4477 118.271 25.0794C118.739 25.9286 119.57 25.9958 120.24 25.951C123.323 25.2356 125.316 22.3525 126.943 19.7154C127.887 17.7151 128.726 15.7259 128.726 13.5131C128.726 13.245 128.712 12.8875 128.689 12.6191C130.162 11.8371 133.183 13.2225 133.183 13.2225C135.544 14.0051 140.57 17.8608 142.265 18.598C143.092 17.6371 144.451 16.1844 145.217 15.4579L144.109 14.7761C142.335 13.6921 140.461 12.6638 138.616 11.647C134.425 9.35635 131.014 10.1608 129.278 10.7867C128.596 11.0324 127.972 11.2448 127.972 11.2448C126.684 9.83675 124.571 9.97051 123.014 10.3507C117.415 11.9599 112.217 15.8822 106.644 22.6882C102.546 28.0189 100.005 32.6232 98.6502 37.1713C97.606 40.2333 97.2887 44.7368 99.8372 47.4078C102.004 49.6758 104.877 49.1845 106.906 48.369C111.302 46.201 115.253 41.5295 117.222 36.1541C117.697 34.5562 118.225 32.2989 117.407 30.5777ZM127.515 13.7368C126.933 20.4197 121.746 24.3425 120.462 24.6549C119.684 24.8111 118.357 24.465 119.542 21.6604C121.287 17.8827 124.266 14.6758 127.462 13.0329C127.54 13.3123 127.538 13.4907 127.515 13.7368ZM158.29 14.5858C155.499 16.173 152.606 17.2008 149.104 16.8433C148.134 17.9388 147.189 19.0674 146.318 20.2294C151.233 21.4811 156.443 18.6985 159.35 16.0502C162.424 13.3792 164 10.0157 164 10.0157C164 10.0157 161.696 12.6528 158.29 14.5858ZM105.551 20.1509H101.891L99.8256 23.5103H103.485L105.551 20.1509Z" fill="var(--fill-0, #717171)"/>
<path d="M149.09 45.2042C148.696 45.4724 148.143 45.2662 148.35 44.6518C148.865 43.0872 150.912 39.8989 150.912 39.8989L156.615 29.771H152.709C152.523 30.0763 152.126 30.7775 152.126 30.7775C151.946 30.4761 151.405 29.8059 151.183 29.661C150.228 29.0571 148.828 29.3426 147.862 29.8901C143.663 32.349 140.598 37.2071 138.182 40.9957C138.182 40.9957 135.638 45.2071 134.226 45.5203C133.123 45.6098 133.237 44.1228 133.285 43.7763C133.711 41.2727 134.701 38.8926 135.698 36.7357C137.727 35.3277 140.042 33.4838 142.145 31.4612C146.711 27.0912 150.56 22.1406 151.122 21.0343C151.122 21.0343 150.513 21.1574 149.794 21.1795C146.282 26.0854 139.094 33.2155 136.915 34.2769C137.881 31.952 144.118 20.8553 149.425 15.5472L150.26 14.7423C151.552 13.4795 152.89 12.1833 153.933 11.9709C154.043 11.9597 154.184 11.9709 154.307 12.2283C154.353 13.2115 153.988 13.9381 153.569 14.7649L152.981 15.972C152.981 15.972 153.813 15.8155 154.36 15.6362C154.994 14.4411 155.697 13.0996 155.438 11.5019C155.352 10.9878 154.98 10.5967 154.494 10.5072C152.911 10.2055 151.186 11.3785 149.797 12.3288L149.741 12.3621C142.604 17.9609 136.577 26.0295 131.308 37.0484C130.926 37.3386 129.451 37.6853 129.2 37.5175C129.72 36.445 130.375 35.003 130.703 33.4385C130.76 32.9912 130.813 32.5334 130.813 32.0865C130.813 31.1246 130.582 30.2197 129.722 29.5943C128.713 29.0913 127.466 29.3261 126.625 29.7057C122.859 31.2703 120.044 35.1372 118.012 38.3218C116.92 40.345 115.83 42.512 115.529 44.9933C115.316 46.9375 115.749 48.1893 116.853 48.8152C117.988 49.3959 119.417 48.7923 119.978 48.5021C123.794 46.4904 126.46 42.4564 128.562 38.7684C128.645 38.7574 129.793 38.7241 130.661 38.5003C130.672 38.5003 130.677 38.5003 130.696 38.5119C130.646 38.6789 130.198 40.0204 130.198 40.0204C128.866 43.9313 128.25 46.5913 129.508 48.1669C131.306 50.3908 134.282 48.089 136.704 45.0488C136.184 48.6917 138.069 49.262 139.507 48.9829C141.158 48.5361 142.998 46.77 143.852 45.8651C143.578 46.9265 143.652 48.8267 145.154 49.0163C146.184 49.2069 146.954 48.6462 147.846 48.1655C151.043 46.422 154.871 40.6123 155.865 38.9326H154.562C153.149 41.0708 151.351 43.8738 149.09 45.2042ZM120.386 44.8151C120.184 44.5133 120.116 44.1834 120.11 43.8267C120.071 41.6353 122.425 37.7113 124.087 35.5735H124.091C124.787 37.1005 126.364 38.082 127.316 38.4957C126.134 41.1333 122.078 46.7819 120.386 44.8151ZM127.984 37.3166C127.871 37.3954 125.882 36.7244 125.498 34.8806C125.172 33.2931 126.264 32.0527 127.32 31.4276C127.773 31.0697 128.456 30.9472 128.957 31.1252C129.422 31.4387 129.548 31.9979 129.548 32.6003C129.548 32.9698 129.499 33.3494 129.456 33.6958L129.447 33.7743C129.113 35.0132 128.622 36.2039 127.984 37.3166ZM143.935 44.1112C143.933 44.1112 143.557 44.4464 143.557 44.4464C143.021 44.9268 142.469 45.4407 141.802 45.1836C141.618 45.1167 141.489 44.871 141.458 44.6805C141.427 43.3059 142.045 42.0322 142.645 40.7918L142.799 40.4677C144.523 37.5845 146.528 34.1873 149.472 31.8296C149.968 31.4713 150.506 31.1701 151.074 31.405C151.205 31.5278 151.357 31.7402 151.357 31.9523C151.357 32.0196 151.297 32.1983 151.263 32.254C150.441 33.5845 149.658 34.981 148.896 36.322C147.408 38.9706 145.865 41.708 143.935 44.1112Z" fill="var(--fill-0, #717171)"/>
</g>
</g>
</svg>
