<svg preserveAspectRatio="none" width="100%" height="100%" overflow="visible" style="display: block;" viewBox="0 0 20 20" fill="none" xmlns="http://www.w3.org/2000/svg">
<path id="Union" d="M0 2.84766C0.471656 0.90736 2.24323 0.881726 3.47461 2.13281C4.79822 3.47768 8.10069 6.90291 8.93457 7.80176C9.88216 8.82318 9.30549 9.7431 8.98438 10.1006C8.49543 10.6449 7.11769 12.1187 5.24512 13.9561H7.81738C8.81009 13.9561 8.85938 14.6203 8.85938 15.1055V15.9229C8.85874 16.5379 7.56854 22.0409 4.81445 19.1816C4.68768 19.05 4.47483 18.8442 4.21484 18.5918C3.83189 18.22 3.3462 17.7475 2.87891 17.2666C2.25861 16.6282 2.35759 16.2537 2.8291 15.7686L4.77734 14.127C1.63813 13.9648 0.000211882 11.1474 0 9.43652V2.84766ZM16.5254 2.13281C17.7568 0.881861 19.5284 0.907369 20 2.84766V9.43652C19.9998 11.1474 18.3611 13.965 15.2217 14.127L17.1709 15.7686C17.6424 16.2537 17.7413 16.6283 17.1211 17.2666C16.6538 17.7475 16.1671 18.22 15.7842 18.5918C15.5245 18.844 15.3123 19.0501 15.1855 19.1816C12.4315 22.0409 11.1403 16.5379 11.1396 15.9229V15.1055C11.1396 14.6203 11.1899 13.9561 12.1826 13.9561H14.7539C12.8816 12.1189 11.5047 10.645 11.0156 10.1006C10.6945 9.7431 10.1178 8.82318 11.0654 7.80176C11.8995 6.90268 15.2018 3.4776 16.5254 2.13281ZM10.5244 1.40332C10.5979 1.59968 10.6353 1.69764 10.6924 1.78027C10.7431 1.85358 10.8057 1.9176 10.877 1.96973C10.9574 2.02851 11.0529 2.06696 11.2441 2.14258L12.6084 2.68164L11.2441 3.22168C11.0532 3.29717 10.9573 3.33494 10.877 3.39355C10.8058 3.44559 10.743 3.50986 10.6924 3.58301C10.6352 3.6657 10.598 3.76434 10.5244 3.96094L10 5.36426L9.47461 3.96094C9.40112 3.76448 9.36479 3.66567 9.30762 3.58301C9.25695 3.50979 9.19428 3.44563 9.12305 3.39355C9.04266 3.33486 8.94689 3.29722 8.75586 3.22168L7.3916 2.68164L8.75586 2.14258C8.94712 2.06695 9.0426 2.02854 9.12305 1.96973C9.19428 1.91762 9.25696 1.85352 9.30762 1.78027C9.36463 1.6977 9.40125 1.59941 9.47461 1.40332L10 0L10.5244 1.40332Z" fill="var(--fill-0, #010101)" fill-opacity="0.24"/>
</svg>
