<svg preserveAspectRatio="none" width="100%" height="100%" overflow="visible" style="display: block;" viewBox="0 0 27.999 28.0001" fill="none" xmlns="http://www.w3.org/2000/svg">
<path id="Union" d="M0 3.9873C0.660145 1.27037 3.14023 1.23462 4.86426 2.98633C6.7173 4.86913 11.3404 9.66446 12.5078 10.9229C13.8344 12.3528 13.0267 13.6391 12.5771 14.1396C11.8927 14.9016 9.96536 16.9657 7.34375 19.5381H10.9443C12.3341 19.5381 12.4033 20.4682 12.4033 21.1475V22.291C12.4033 23.149 10.5969 30.8584 6.74023 26.8545C6.56276 26.6703 6.26554 26.3809 5.90137 26.0273C5.36523 25.5068 4.68448 24.8461 4.03027 24.1729C3.16204 23.2793 3.30087 22.7554 3.96094 22.0762L6.68848 19.7783C2.29332 19.5515 0.000199116 15.6062 0 13.2109V3.9873ZM23.1348 2.98633C24.8588 1.23462 27.3389 1.27041 27.999 3.9873V13.2109C27.9988 15.6062 25.7058 19.5516 21.3105 19.7783L24.0381 22.0762C24.6982 22.7554 24.8371 23.2792 23.9688 24.1729C23.3147 24.846 22.6347 25.5069 22.0986 26.0273C21.9164 26.2042 21.7505 26.3654 21.6084 26.5049L21.0801 27.0332C17.3464 30.6196 15.5957 23.1356 15.5957 22.291V21.1475C15.5957 20.4683 15.6651 19.5382 17.0547 19.5381H20.6562C18.0345 16.9656 16.1063 14.9016 15.4219 14.1396C14.9723 13.639 14.1649 12.3526 15.4912 10.9229C16.6586 9.6645 21.2816 4.86921 23.1348 2.98633ZM14.4824 1.96387C14.5849 2.23919 14.6361 2.37737 14.7158 2.49316C14.7864 2.59567 14.8734 2.68489 14.9727 2.75781C15.0847 2.8401 15.2181 2.89325 15.4844 2.99902L17.3857 3.75488L15.4844 4.51074C15.2181 4.61652 15.0847 4.66966 14.9727 4.75195C14.8734 4.82488 14.7864 4.91409 14.7158 5.0166C14.6361 5.13239 14.5849 5.27058 14.4824 5.5459L13.751 7.50977L13.0195 5.5459C12.917 5.27058 12.8658 5.13239 12.7861 5.0166C12.7155 4.91408 12.6286 4.82487 12.5293 4.75195C12.4172 4.66962 12.2841 4.61663 12.0176 4.51074L10.1162 3.75488L12.0176 2.99902C12.2841 2.89314 12.4172 2.84014 12.5293 2.75781C12.6286 2.6849 12.7155 2.59568 12.7861 2.49316C12.8658 2.37737 12.917 2.23919 13.0195 1.96387L13.751 0L14.4824 1.96387Z" fill="var(--fill-0, #717171)"/>
</svg>
