<svg preserveAspectRatio="none" width="100%" height="100%" overflow="visible" style="display: block;" viewBox="0 0 159 32" fill="none" xmlns="http://www.w3.org/2000/svg">
<g id="Company Logo Detail">
<path id="Vector" d="M40.7374 6.4H51.6561V10.0992H45.0541V14.4992H50.5275V17.9872H45.0509V25.6H40.7342L40.7374 6.4Z" fill="var(--fill-0, #717171)"/>
<path id="Vector_2" d="M53.1765 6.4H57.4932V21.9008H63.6595V25.6H53.1765V6.4Z" fill="var(--fill-0, #717171)"/>
<path id="Vector_3" d="M65.2803 6.4H69.5938V25.6H65.2803V6.4Z" fill="var(--fill-0, #717171)"/>
<path id="Vector_4" d="M71.735 6.4H77.1175C81.7665 6.4 84.3622 8.864 84.3622 12.9312C84.3622 17.1264 81.7665 19.6992 77.1175 19.6992H76.0517V25.6H71.735V6.4ZM76.0517 9.888V16.1824H76.8981C78.9796 16.1824 80.0329 15.1328 80.0329 13.008C80.0329 10.9632 78.9796 9.888 76.8981 9.888H76.0517Z" fill="var(--fill-0, #717171)"/>
<path id="Vector_5" d="M85.87 6.4H92.0613C96.3028 6.4 98.3561 8.2624 98.3561 11.408C98.3561 13.2192 97.4846 14.8448 95.2996 15.3952C97.6602 15.8176 98.9141 17.6768 98.9141 19.9072C98.9141 23.1872 96.6539 25.6 92.4155 25.6H85.8637L85.87 6.4ZM90.1867 9.888V14.048H91.3904C93.1899 14.048 94.0112 13.2608 94.0112 11.872C94.0112 10.64 93.24 9.8784 91.4688 9.8784L90.1867 9.888ZM90.1867 17.3632V22.1152H91.8042C93.6852 22.1152 94.6037 21.2224 94.6037 19.6736C94.6037 18.1792 93.5786 17.3664 91.8293 17.3664L90.1867 17.3632Z" fill="var(--fill-0, #717171)"/>
<path id="Vector_6" d="M107.303 6.07998C111.823 6.07998 114.422 9.46878 114.422 16C114.422 22.5312 111.827 25.92 107.303 25.92C102.779 25.92 100.187 22.5376 100.187 16C100.187 9.46238 102.779 6.07998 107.303 6.07998ZM107.303 22.1344C109.024 22.1344 110.102 20.3232 110.102 15.9968C110.102 11.6704 109.024 9.85918 107.303 9.85918C105.582 9.85918 104.526 11.6672 104.526 15.9968C104.526 20.3264 105.579 22.1376 107.303 22.1376V22.1344Z" fill="var(--fill-0, #717171)"/>
<path id="Vector_7" d="M119.244 6.4H124.717L129.445 25.6H124.933L124.14 21.76H119.554L118.73 25.6H114.388L119.244 6.4ZM121.839 10.56L120.272 18.2208H123.485L121.946 10.56H121.839Z" fill="var(--fill-0, #717171)"/>
<path id="Vector_8" d="M130.554 6.4H135.949C140.652 6.4 143.16 8.4192 143.16 12.48C143.16 15.104 142.003 17.0464 139.846 18.0416L143.802 25.6H139.134L135.924 18.7776H134.871V25.6H130.554V6.4ZM134.871 9.888V15.36H135.949C137.927 15.36 138.827 14.4 138.827 12.528C138.827 10.7424 137.927 9.8784 135.949 9.8784L134.871 9.888Z" fill="var(--fill-0, #717171)"/>
<path id="Vector_9" d="M145.407 6.4H150.83C156.407 6.4 159 10.4128 159 16C159 21.5072 156.404 25.6 150.83 25.6H145.407V6.4ZM149.724 10.0992V21.9008H150.752C153.573 21.9008 154.58 19.1456 154.58 16C154.58 12.6688 153.58 10.0992 150.752 10.0992H149.724Z" fill="var(--fill-0, #717171)"/>
<path id="Vector_10" d="M0 0V32H31.3486V0H0ZM25.0789 12.8H18.8091V19.2H12.5394V25.6H6.26972V6.4H25.0789V12.8Z" fill="var(--fill-0, #222222)"/>
</g>
</svg>
