<svg preserveAspectRatio="none" width="100%" height="100%" overflow="visible" style="display: block;" viewBox="0 0 133 42" fill="none" xmlns="http://www.w3.org/2000/svg">
<g id="Company Logo Detail">
<path id="Vector" d="M16.6369 14.9864V19.4727H27.3796C27.0944 21.9545 26.2387 23.8636 24.9078 25.1045C23.3867 26.6318 20.9149 28.35 16.6369 28.35C10.0772 28.35 4.94353 23.0045 4.94353 16.4182C4.94353 9.83182 9.98213 4.48636 16.6369 4.48636C20.1544 4.48636 22.8163 5.91818 24.7177 7.73182L27.8549 4.58182C25.193 2.00455 21.5804 0 16.6369 0C7.60543 0 0 7.35 0 16.4182C0 25.4864 7.60543 32.8364 16.6369 32.8364C21.4853 32.8364 25.193 31.2136 28.045 28.2545C30.9921 25.2955 31.9428 21.0955 31.9428 17.7545C31.9428 16.7045 31.8477 15.75 31.7527 14.9864H16.6369Z" fill="var(--fill-0, #717171)"/>
<path id="Vector_2" d="M45.2521 11.2636C39.4529 11.2636 34.6045 15.75 34.6045 21.8591C34.6045 27.9682 39.3579 32.4545 45.2521 32.4545C51.1463 32.4545 55.8997 28.0636 55.8997 21.9545C55.8997 15.75 51.1463 11.2636 45.2521 11.2636ZM45.2521 28.35C42.0198 28.35 39.2628 25.6773 39.2628 21.9545C39.2628 18.1364 42.0198 15.5591 45.2521 15.5591C48.4844 15.5591 51.2413 18.1364 51.2413 21.9545C51.2413 25.6773 48.4844 28.35 45.2521 28.35Z" fill="var(--fill-0, #717171)"/>
<path id="Vector_3" d="M97.2544 13.65H97.0643C96.0185 12.4091 94.0221 11.2636 91.4553 11.2636C86.1315 11.2636 81.5682 15.8455 81.5682 21.8591C81.5682 27.7773 86.1315 32.4546 91.4553 32.4546C94.0221 32.4546 96.0185 31.3091 97.0643 30.0682H97.2544V31.5955C97.2544 35.6045 95.0679 37.8 91.6454 37.8C88.7934 37.8 87.0822 35.7955 86.3216 33.9818L82.3288 35.7C83.4696 38.4682 86.6068 42 91.7405 42C97.1594 42 101.818 38.7546 101.818 30.9273V11.8364H97.4446V13.65H97.2544ZM91.9306 28.35C88.6983 28.35 86.3216 25.5818 86.3216 21.9546C86.3216 18.2318 88.7934 15.5591 91.9306 15.5591C95.0679 15.5591 97.5396 18.3273 97.5396 22.05C97.6347 25.6773 95.1629 28.35 91.9306 28.35Z" fill="var(--fill-0, #717171)"/>
<path id="Vector_4" d="M68.9243 11.2636C63.1252 11.2636 58.2767 15.75 58.2767 21.8591C58.2767 27.9682 63.0301 32.4545 68.9243 32.4545C74.8185 32.4545 79.5719 28.0636 79.5719 21.9545C79.5719 15.75 74.8185 11.2636 68.9243 11.2636ZM68.9243 28.35C65.692 28.35 62.935 25.6773 62.935 21.9545C62.935 18.1364 65.692 15.5591 68.9243 15.5591C72.1566 15.5591 74.9136 18.1364 74.9136 21.9545C74.9136 25.6773 72.1566 28.35 68.9243 28.35Z" fill="var(--fill-0, #717171)"/>
<path id="Vector_5" d="M105.335 0.477264H109.899V32.55H105.335V0.477264Z" fill="var(--fill-0, #717171)"/>
<path id="Vector_6" d="M123.968 28.35C121.592 28.35 119.975 27.3 118.835 25.1045L133 19.2818L132.524 18.0409C131.669 15.6545 128.912 11.2636 123.493 11.2636C118.074 11.2636 113.511 15.5591 113.511 21.8591C113.511 27.7773 117.979 32.4545 123.968 32.4545C128.817 32.4545 131.574 29.4955 132.81 27.7773L129.197 25.3909C127.961 27.2045 126.345 28.35 123.968 28.35ZM123.683 15.2727C125.584 15.2727 127.201 16.2273 127.676 17.5636L118.169 21.5727C118.074 17.1818 121.306 15.2727 123.683 15.2727Z" fill="var(--fill-0, #717171)"/>
</g>
</svg>
