<svg preserveAspectRatio="none" width="100%" height="100%" overflow="visible" style="display: block;" viewBox="0 0 138 48" fill="none" xmlns="http://www.w3.org/2000/svg">
<g id="Group 5">
<g id="Lilly AI">
<path d="M24.5402 31.1273V37.5273H0V0.872726H6.92899V31.1273H24.5402Z" fill="var(--fill-0, #717171)"/>
<path d="M28.4134 37.5273V17.6739H35.3424V37.5273H28.4134Z" fill="#222222"/>
<path d="M39.4538 37.5273V7.86885H46.3828V37.5273H39.4538Z" fill="#222222"/>
<path d="M50.1089 37.5273V0H57.0379V37.5273H50.1089Z" fill="#222222"/>
<path d="M67.7575 9.01818L74.571 27.9273L81.3846 9.01818H88.6023L74.5133 48H67.2956L70.9911 37.9345L60.5398 9.01818H67.7575Z" fill="var(--fill-0, #717171)"/>
</g>
<path id="Lilly AI_2" d="M31.8777 7.4892C29.799 7.4892 28.0668 9.23465 28.0668 11.3292C28.0668 13.4237 29.799 15.1692 31.8777 15.1692C33.9564 15.1692 35.6309 13.4237 35.6309 11.3292C35.6309 9.23465 33.9564 7.4892 31.8777 7.4892Z" fill="var(--fill-0, #717171)"/>
<g id="Lilly AI_3">
<path d="M107.437 22.8359H115.619L111.528 11.3299L107.437 22.8359ZM117.924 29.2934H105.132L102.366 36.9836H94.875L108.071 0H114.985L128.181 36.9836H120.69L117.924 29.2934Z" fill="var(--fill-0, #717171)"/>
<path d="M131.085 36.9836V0H138V36.9836H131.085Z" fill="var(--fill-0, #717171)"/>
</g>
</g>
</svg>
