<svg preserveAspectRatio="none" width="100%" height="100%" overflow="visible" style="display: block;" viewBox="0 0 160 25" fill="none" xmlns="http://www.w3.org/2000/svg">
<g id="LaunchDarkly_Logo_0 1" clip-path="url(#clip0_6392_333)">
<path id="Vector" d="M9.5724 19.5047V17.1367H2.65275V5.49502H-6.10352e-05V19.5047H9.5724ZM16.2167 19.0769C16.8041 18.6332 17.2543 18.0291 17.5145 17.3354V19.5047H20.05V12.74C20.0594 12.0558 19.8697 11.3839 19.5048 10.808C19.1353 10.2359 18.611 9.78363 17.9943 9.50529C17.254 9.17778 16.4518 9.01856 15.6441 9.03885C15.1633 9.03681 14.6833 9.07931 14.21 9.16581C13.763 9.24964 13.3248 9.37625 12.9014 9.54393C12.51 9.70108 12.1325 9.89127 11.7726 10.1125L11.849 12.5192C12.4193 12.1317 13.0335 11.8148 13.6784 11.5753C14.3164 11.3509 14.9879 11.2397 15.6632 11.2468C16.1522 11.2164 16.6358 11.3643 17.0264 11.6636C17.1842 11.793 17.3106 11.9573 17.3957 12.1439C17.4808 12.3306 17.5223 12.5345 17.5172 12.74V13.4355H15.2679C13.9174 13.4355 12.8496 13.7244 12.0644 14.3021C11.685 14.5693 11.378 14.9287 11.1717 15.3473C10.9654 15.7659 10.8664 16.2303 10.8838 16.6978C10.8767 17.2383 11.0122 17.7709 11.2764 18.2407C11.5464 18.7024 11.9408 19.0768 12.4133 19.3198C12.9391 19.5932 13.5237 19.7298 14.1146 19.7173C14.8655 19.7413 15.6036 19.5164 16.2167 19.0769ZM13.9265 17.3354C13.7871 17.2295 13.6757 17.0906 13.602 16.9307C13.5282 16.7709 13.4946 16.5952 13.5039 16.4191C13.4975 16.203 13.5488 15.9892 13.6525 15.8003C13.7561 15.6113 13.9083 15.4541 14.0928 15.3454C14.6311 15.0596 15.2365 14.9288 15.8432 14.9673H17.479V15.3647C17.473 15.721 17.3793 16.0701 17.2064 16.3804C17.0044 16.7503 16.7126 17.0619 16.3585 17.2857C15.9718 17.5401 15.519 17.6717 15.058 17.6638C14.6556 17.6819 14.2583 17.5666 13.9265 17.3354ZM28.1284 19.0438C28.7509 18.4704 29.2063 17.7355 29.4453 16.9186V19.5047H32.0217V9.35625H29.4453V14.0924C29.4553 14.7142 29.3489 15.3323 29.1317 15.914C28.9505 16.4107 28.6338 16.8452 28.2184 17.167C27.8166 17.4657 27.3291 17.6227 26.8306 17.6141C26.5873 17.6296 26.3435 17.5928 26.1151 17.5063C25.8868 17.4197 25.6791 17.2853 25.5056 17.1118C25.1715 16.7057 25.0054 16.1845 25.0421 15.6573V9.35625H22.4684V15.7042C22.4684 17.018 22.7765 18.03 23.3926 18.7402C23.7033 19.1001 24.0902 19.3843 24.5245 19.5716C24.9589 19.759 25.4294 19.8446 25.9009 19.8221C26.7132 19.8518 27.5072 19.5743 28.1284 19.0438ZM37.3983 19.5103V14.7686C37.3883 14.1468 37.4946 13.5287 37.7118 12.947C37.8921 12.452 38.2056 12.0179 38.617 11.694C39.0141 11.3943 39.4985 11.237 39.9938 11.2468C40.2368 11.2307 40.4804 11.2666 40.7087 11.3522C40.937 11.4378 41.1449 11.5712 41.3188 11.7436C41.6525 12.1489 41.8186 12.6691 41.7823 13.1954V19.5047H44.3779V13.1568C44.3779 11.843 44.0662 10.831 43.4427 10.1208C43.1302 9.76449 42.7431 9.48325 42.3097 9.29752C41.8763 9.11179 41.4074 9.02625 40.9371 9.04713C40.1228 9.0148 39.3263 9.29472 38.7069 9.83096C38.0914 10.4064 37.6395 11.1384 37.3983 11.9506V9.35625H34.8245V19.5047L37.3983 19.5103ZM53.0343 19.7283C53.3512 19.6805 53.6638 19.6076 53.9694 19.5103C54.2584 19.4164 54.5147 19.3253 54.7874 19.2343L54.8065 16.7668C54.3906 16.9783 53.9513 17.1386 53.4978 17.2443C53.0438 17.3517 52.579 17.4054 52.1127 17.4044C51.5098 17.4256 50.9113 17.2917 50.3733 17.0152C49.9278 16.7775 49.5666 16.4051 49.34 15.9499C49.1193 15.475 49.0049 14.9567 49.0049 14.4319C49.0049 13.9071 49.1193 13.3887 49.34 12.9139C49.5684 12.4579 49.9289 12.0833 50.3733 11.8402C50.8969 11.5611 51.4831 11.4241 52.0746 11.4428C52.5618 11.4404 53.0474 11.5006 53.5196 11.6222C53.9629 11.7386 54.3939 11.8985 54.8065 12.0997L54.7874 9.57153C54.5118 9.46109 54.2295 9.3689 53.9422 9.29553C53.2999 9.12919 52.6394 9.04573 51.9764 9.04713C50.9398 9.02118 49.9139 9.26443 48.9964 9.75368C48.1773 10.1974 47.4994 10.8674 47.0416 11.6857C46.5752 12.537 46.3374 13.4972 46.3518 14.4705C46.3367 15.4371 46.5777 16.3902 47.0498 17.2305C47.5132 18.0378 48.1953 18.6939 49.0155 19.1211C49.9258 19.5866 50.935 19.8188 51.9546 19.7973C52.3122 19.7998 52.6695 19.7749 53.0234 19.7228L53.0343 19.7283ZM59.6704 19.5103V14.7686C59.6604 14.1468 59.7668 13.5287 59.9839 12.947C60.1651 12.4503 60.4819 12.0158 60.8973 11.694C61.2914 11.3985 61.7701 11.2414 62.2605 11.2468C62.5064 11.2295 62.7532 11.2647 62.9848 11.3503C63.2164 11.4359 63.4276 11.5699 63.6046 11.7436C63.9383 12.1489 64.1044 12.6691 64.0681 13.1954V19.5047H66.6418V13.1568C66.6418 11.843 66.3338 10.831 65.7176 10.1208C65.4076 9.76427 65.0225 9.48274 64.5908 9.29692C64.159 9.11111 63.6916 9.02574 63.2229 9.04713C62.4053 9.01554 61.6057 9.2952 60.9818 9.83096C60.3613 10.4037 59.9061 11.1364 59.6649 11.9506V5.49502H57.1294V19.5047L59.6704 19.5103ZM74.9247 19.5103C76.2273 19.5493 77.5186 19.255 78.679 18.6547C79.6908 18.1067 80.5136 17.2594 81.0373 16.2259C81.5973 15.0762 81.8733 13.8061 81.8416 12.5247C81.8714 11.2408 81.5955 9.96854 81.0373 8.81529C80.5144 7.7762 79.692 6.92246 78.679 6.36718C77.5205 5.76049 76.2285 5.46225 74.9247 5.50054H69.6055V19.5047L74.9247 19.5103ZM72.2501 17.1367V7.86309H74.8838C76.2089 7.86309 77.2476 8.27157 78.0001 9.08853C78.7526 9.90548 79.1298 11.049 79.1316 12.5192C79.1316 13.9912 78.7544 15.1292 78.0001 15.9333C77.2458 16.7374 76.207 17.1385 74.8838 17.1367H72.2501ZM88.5868 19.0687C89.1734 18.6241 89.6234 18.0202 89.8846 17.3271V19.4965H92.4256V12.74C92.439 12.0572 92.2541 11.3854 91.8939 10.808C91.5205 10.2342 90.9913 9.7818 90.3699 9.50529C89.6304 9.17809 88.8292 9.01887 88.0224 9.03885C87.5407 9.03677 87.0597 9.07926 86.5856 9.16581C86.1394 9.24963 85.7021 9.37624 85.2797 9.54393C84.8872 9.70052 84.5087 9.89073 84.1482 10.1125L84.2273 12.5192C84.7973 12.1312 85.4116 11.8142 86.0567 11.5753C86.6946 11.3506 87.3661 11.2395 88.0415 11.2468C88.5306 11.2157 89.0144 11.3636 89.4047 11.6636C89.5629 11.7928 89.6896 11.9571 89.7752 12.1437C89.8607 12.3303 89.9028 12.5343 89.8982 12.74V13.4355H87.6571C86.2939 13.4355 85.2388 13.7115 84.4508 14.3021C84.0721 14.5698 83.7658 14.9293 83.5601 15.3479C83.3543 15.7665 83.2556 16.2306 83.273 16.6978C83.2659 17.2383 83.4014 17.7709 83.6656 18.2407C83.9319 18.7015 84.3225 19.0758 84.7916 19.3198C85.3163 19.5934 85.9001 19.73 86.4902 19.7173C87.2466 19.7447 87.9909 19.5197 88.6086 19.0769L88.5868 19.0687ZM86.2966 17.3271C86.1594 17.2216 86.0498 17.0837 85.9776 16.9254C85.9053 16.7671 85.8726 16.5932 85.8822 16.4191C85.8758 16.203 85.9271 15.9892 86.0308 15.8003C86.1344 15.6113 86.2866 15.4541 86.4711 15.3454C87.0093 15.0593 87.6148 14.9285 88.2215 14.9673H89.8573V15.3647C89.8499 15.7208 89.7563 16.0696 89.5847 16.3804C89.3835 16.75 89.0926 17.0615 88.7395 17.2857C88.3512 17.541 87.8964 17.6727 87.4335 17.6638C87.032 17.6819 86.6356 17.5665 86.3048 17.3354L86.2966 17.3271ZM97.6058 19.5047V15.1798C97.6058 14.0538 97.8403 13.1926 98.3119 12.6048C98.5391 12.3159 98.8303 12.0852 99.1618 11.9313C99.4933 11.7774 99.856 11.7046 100.22 11.7188C100.58 11.7158 100.938 11.7689 101.281 11.8761V9.38385C101.117 9.33274 100.949 9.29672 100.779 9.27621C100.598 9.25391 100.416 9.24377 100.234 9.24585C99.9328 9.24331 99.6341 9.30321 99.3566 9.42188C99.079 9.54054 98.8283 9.71545 98.62 9.93584C98.1341 10.4564 97.7853 11.0923 97.6058 11.785V9.35625H95.0293V19.5047H97.6058ZM105.488 19.5047V16.2203L106.412 15.3261L109.411 19.5047H112.438L108.154 13.5735L112.358 9.35625H109.136L105.48 12.9718V5.51986H102.944V19.5047H105.488ZM116.595 19.5047V5.49502H114.038V19.5047H116.595ZM120.508 23.2859C121.32 23.3203 122.125 23.1162 122.825 22.698C123.427 22.3061 123.925 21.6262 124.319 20.6584L128.93 9.35625H126.296L123.57 16.4605L120.813 9.35625H118.179L122.307 19.4854L122.089 20.0015C121.989 20.3044 121.798 20.5686 121.544 20.7578C121.231 20.9392 120.873 21.0228 120.513 20.9979H118.373V23.2859H120.508Z" fill="var(--fill-0, #717171)"/>
<path id="Vector_2" d="M147.799 24.9999C147.697 25.0001 147.597 24.9712 147.51 24.9166C147.423 24.8619 147.353 24.7837 147.308 24.6908C147.265 24.6033 147.246 24.5052 147.255 24.4077C147.264 24.3101 147.299 24.217 147.358 24.1388L153.159 16.052L143.001 20.2527C142.932 20.283 142.858 20.299 142.783 20.2996C142.665 20.299 142.551 20.26 142.457 20.1884C142.363 20.1168 142.295 20.0164 142.262 19.9022C142.228 19.7906 142.232 19.6708 142.272 19.5615C142.313 19.4523 142.388 19.3595 142.485 19.2978L151.42 13.9572L135.688 13.0409C135.562 13.0184 135.448 12.9516 135.365 12.8522C135.283 12.7527 135.237 12.627 135.237 12.4971C135.237 12.3673 135.283 12.2415 135.365 12.1421C135.448 12.0426 135.562 11.9758 135.688 11.9534L151.428 11.0399L142.491 5.69928C142.393 5.63751 142.318 5.54479 142.278 5.43549C142.237 5.3262 142.234 5.20646 142.267 5.09485C142.3 4.98109 142.368 4.88102 142.461 4.80945C142.555 4.73788 142.668 4.69859 142.785 4.69741C142.861 4.69715 142.935 4.71413 143.003 4.74709L153.165 8.95331L147.363 0.869299C147.305 0.791113 147.269 0.697961 147.261 0.600399C147.252 0.502838 147.27 0.404768 147.314 0.317301C147.358 0.223271 147.426 0.143605 147.513 0.0874581C147.599 0.0313115 147.699 0.000963418 147.802 -9.79641e-05C147.873 0.000379179 147.943 0.0152851 148.008 0.0437335C148.073 0.0721819 148.132 0.113592 148.181 0.165502L159.744 11.8679C159.908 12.0345 160 12.2603 160 12.4958C160 12.7312 159.908 12.957 159.744 13.1237L148.175 24.8398C148.126 24.8905 148.068 24.9308 148.003 24.9583C147.939 24.9858 147.869 24.9999 147.799 24.9999Z" fill="var(--fill-0, #717171)"/>
</g>
<defs>
<clipPath id="clip0_6392_333">
<rect width="160" height="25" fill="white"/>
</clipPath>
</defs>
</svg>
