<svg preserveAspectRatio="none" width="100%" height="100%" overflow="visible" style="display: block;" viewBox="0 0 69 24" fill="none" xmlns="http://www.w3.org/2000/svg">
<g id="Group 6">
<g id="Lilly AI">
<path d="M12.2701 15.5636V18.7636H0V0.436363H3.4645V15.5636H12.2701Z" fill="var(--fill-0, #010101)" fill-opacity="0.24"/>
<path d="M14.2067 18.7636V8.83696H17.6712V18.7636H14.2067Z" fill="#010101" fill-opacity="0.24"/>
<path d="M19.7269 18.7636V3.93443H23.1914V18.7636H19.7269Z" fill="#010101" fill-opacity="0.24"/>
<path d="M25.0544 18.7636V0H28.5189V18.7636H25.0544Z" fill="#010101" fill-opacity="0.24"/>
<path d="M33.8788 4.50909L37.2855 13.9636L40.6923 4.50909H44.3011L37.2567 24H33.6478L35.4955 18.9673L30.2699 4.50909H33.8788Z" fill="var(--fill-0, #010101)" fill-opacity="0.24"/>
</g>
<path id="Lilly AI_2" d="M15.9389 3.74498C14.8995 3.74498 14.0334 4.6177 14.0334 5.66498C14.0334 6.71225 14.8995 7.58498 15.9389 7.58498C16.9782 7.58498 17.8155 6.71225 17.8155 5.66498C17.8155 4.6177 16.9782 3.74498 15.9389 3.74498Z" fill="var(--fill-0, #010101)" fill-opacity="0.24"/>
<g id="Lilly AI_3">
<path d="M53.7184 11.418H57.8096L55.764 5.66495L53.7184 11.418ZM58.9621 14.6467H52.5659L51.183 18.4918H47.4375L54.0353 0H57.4927L64.0906 18.4918H60.3451L58.9621 14.6467Z" fill="var(--fill-0, #010101)" fill-opacity="0.24"/>
<path d="M65.5426 18.4918V0H69V18.4918H65.5426Z" fill="var(--fill-0, #010101)" fill-opacity="0.24"/>
</g>
</g>
</svg>
