<svg preserveAspectRatio="none" overflow="visible" style="display: block;" width="28" height="32" viewBox="0 0 28 32" fill="none" xmlns="http://www.w3.org/2000/svg">
<g id="Logo Icon">
<path id="Vector 2" d="M25.2786 6.30904L17.3083 1.83201C15.2819 0.693787 12.8097 0.690262 10.7801 1.8227L3.42613 5.92601C1.31088 7.10625 0 9.33881 0 11.7611V20.0983C0 22.4966 1.28532 24.711 3.36786 25.9004L10.7217 30.1008C12.7813 31.2772 15.3102 31.2735 17.3665 30.0912L25.3252 25.5148C26.9799 24.5634 28 22.8001 28 20.8914V10.959C28 9.03108 26.9595 7.25323 25.2786 6.30904Z" fill="#A31D1D"/>
<path id="Vector 3" d="M26.2475 20.5591V11.2622C26.2475 10.5765 25.5295 10.1276 24.9131 10.4279L23.4065 11.1619C22.9059 11.4058 22.5148 11.8284 22.3103 12.3464L21.5314 14.3197C21.3886 14.6814 20.9283 14.7891 20.6399 14.5281L19.771 13.742C19.4808 13.4794 19.057 13.4271 18.7116 13.6113L16.2902 14.9027C15.5644 15.2898 15.1111 16.0454 15.1111 16.868V26.9704C15.1111 27.8269 16.0374 28.3628 16.7798 27.9359L24.572 23.4554C25.6085 22.8594 26.2475 21.7548 26.2475 20.5591Z" fill="#FDFCFC"/>
</g>
</svg>
