<svg preserveAspectRatio="none" width="100%" height="100%" overflow="visible" style="display: block;" viewBox="0 0 100 48.0001" fill="none" xmlns="http://www.w3.org/2000/svg">
<g id="Layer_1">
<path id="Vector" d="M73.9629 20.3077C70.3863 20.8757 68.6696 23.4319 68.6696 27.9763C68.6696 32.5207 71.1016 35.6449 74.6782 35.6449C78.2547 35.6449 77.9686 35.0769 81.259 33.5148V37.2071C77.3963 39.0532 75.1073 39.4793 71.8169 39.4793C68.5265 39.4793 65.9514 38.6272 64.0916 36.639C62.0887 34.6509 61.0873 31.9526 61.0873 29.1124C61.0873 22.5798 65.9514 18.1775 73.1045 18.1775C80.2576 18.1775 81.1159 20.3077 81.1159 23.4319C81.1159 26.5562 79.5423 26.8402 77.3963 26.8402C75.2504 26.8402 75.2504 26.5562 74.1059 25.8461V20.3077H73.9629ZM56.6524 28.9704C59.7998 24.9941 60.9443 23.4319 60.9443 21.4438C60.9443 19.4556 59.3706 17.8935 57.3677 17.8935C55.3649 17.8935 54.9357 18.4615 54.3634 19.1716V27.2662L49.2132 34.0828V18.4615H44.3491L36.1946 31.9526V18.4615H33.3334L25.8942 20.3077V22.1538L29.8999 22.5798V39.0532H35.1932L43.0616 26.2722V39.0532H48.784L56.7955 28.9704H56.6524ZM10.3005 22.7219C11.445 22.7219 12.1603 22.4378 12.7325 22.4378C16.166 22.4378 18.0258 24.71 18.0258 28.9704C18.0258 33.2307 15.7368 36.639 11.588 36.639C7.43925 36.639 11.0158 36.639 10.4435 36.639V22.8639L10.3005 22.7219ZM10.3005 38.9112C11.588 38.9112 13.0186 38.9112 13.734 38.9112C20.744 38.9112 25.1789 34.5088 25.1789 27.8343C25.1789 21.1597 21.8885 18.0355 17.3105 18.0355C12.7325 18.0355 14.0201 18.4615 10.3005 20.7337V18.0355H8.15456L4.95911e-05 20.4497V22.4378H3.43353V45.4438L0.429234 46.1538V48H13.734V46.1538L10.3005 45.4438V38.7692V38.9112Z" fill="var(--fill-0, #717171)"/>
<path id="Vector_2" d="M70.2434 12.497H48.0689L51.7885 6.24852H73.963L70.2434 12.497ZM100 0H77.8257L74.1061 6.24852H96.2806L100 0Z" fill="var(--fill-0, #222222)"/>
</g>
</svg>
