<svg preserveAspectRatio="none" width="100%" height="100%" overflow="visible" style="display: block;" viewBox="0 0 160 32" fill="none" xmlns="http://www.w3.org/2000/svg">
<g id="Rivian_Logo_Alternative_0 1" clip-path="url(#clip0_6392_442)">
<path id="Vector" d="M160 7.87441H156.648V19.8952L146.962 7.87441H142.987V24.0568H146.339V12.036L156.023 24.0568H160V7.87441ZM127.439 7.87441H123.741L115.79 24.0552H119.488L120.482 21.9755C120.898 21.0974 121.546 20.7034 122.517 20.7034H128.527L127.81 19.1779C127.371 18.2295 126.654 17.7913 125.592 17.7913H122.518L125.592 11.4114L131.694 24.0554H135.393L127.439 7.87441ZM108.205 7.87441H104.737V24.0552H108.205V7.87441ZM97.0896 7.87441H93.3912L87.52 20.404L81.648 7.87441H77.9499L85.6704 24.0568H89.3688L97.0896 7.87441ZM70.3648 7.87441H66.8969V24.0552H70.3648V7.87441ZM57.8976 13.2619C57.8976 10.5347 56.0483 7.87609 52.0719 7.87609H41.7855V24.0569H45.2535V10.7881H51.5648C53.5072 10.7881 54.4311 11.7364 54.4311 13.2619C54.4311 14.8103 53.5056 15.7587 51.5648 15.7587H48.8801C47.6636 15.7587 46.9801 16.4421 46.9801 17.6586V18.6723H48.9062C49.8071 18.6723 50.4775 18.9732 51.0335 19.6893L54.4539 24.0582H58.7067L53.9455 18.0019C56.4879 17.4215 57.8976 15.7571 57.8976 13.2619Z" fill="var(--fill-0, #717171)"/>
<path id="Vector_2" d="M17.6815 19.4049C18.5122 18.6462 19.9755 17.227 20.52 16.5909C20.7685 16.3097 20.7522 15.9582 20.7522 15.9582C20.7522 15.9582 20.7685 15.6066 20.52 15.3254C19.9755 14.6894 18.5122 13.2701 17.6815 12.5115C17.3415 12.1943 17.2597 11.9949 17.2597 11.6057V7.3039C17.2597 7.09952 17.4543 7.00959 17.6195 7.15348C19.4719 8.86868 23.5988 12.958 24.982 14.5423C25.6426 15.2437 25.5821 15.9583 25.5821 15.9583C25.5821 15.9583 25.6426 16.6712 24.982 17.3742C23.5971 18.9586 19.4703 23.0478 17.6195 24.763C17.4543 24.9069 17.2597 24.8169 17.2597 24.6126V20.3108C17.2614 19.92 17.3415 19.7221 17.6815 19.4049ZM15.2453 19.4016C14.4147 18.6429 12.9514 17.2237 12.4069 16.5877C12.1583 16.3065 12.1747 15.9549 12.1747 15.9549C12.1747 15.9549 12.1583 15.6033 12.4069 15.3221C12.9514 14.6861 14.4147 13.2669 15.2453 12.5082C15.5854 12.191 15.6671 11.9915 15.6671 11.6024V7.2875C15.6671 7.11419 15.4644 7.00627 15.3075 7.15179C13.455 8.86699 9.32811 12.9563 7.94483 14.5406C7.28264 15.242 7.34476 15.9566 7.34476 15.9566C7.34476 15.9566 7.28427 16.6695 7.94483 17.3725C9.32971 18.9569 13.4566 23.0462 15.3075 24.7613C15.4726 24.9052 15.6671 24.8153 15.6671 24.6109V20.3091C15.6671 19.9167 15.5854 19.7172 15.2453 19.4016ZM0.0637087 17.2024C1.92603 19.1236 12.0013 29.516 13.8893 31.0152C14.5483 31.5433 15.3968 31.9309 16.4612 31.9309C17.5273 31.9309 18.3759 31.5433 19.0332 31.0152C20.9217 29.5159 30.9964 19.1232 32.8588 17.2024C33.0108 17.0274 32.8735 16.7528 32.6446 16.7528C31.7143 16.7528 29.5576 16.7495 28.2578 16.7495C27.7999 16.7495 27.6643 16.8296 27.3764 17.1386C27.0887 17.4477 25.6564 18.9846 25.6564 18.9846C23.8349 20.9483 19.3925 25.2845 17.7689 26.6513C17.1591 27.1648 16.4691 27.1484 16.4592 27.1484C16.4494 27.1484 15.7594 27.1648 15.1495 26.6513C13.5259 25.2828 9.08355 20.9466 7.26203 18.9846C7.26203 18.9846 5.82971 17.4477 5.54195 17.1386C5.25419 16.8296 5.11847 16.7495 4.66067 16.7495C3.36243 16.7495 1.20419 16.7528 0.273789 16.7528C0.0481487 16.7528 -0.0891953 17.0274 0.0628687 17.2024H0.0637087ZM32.8613 14.7286C30.999 12.8074 20.9237 2.41502 19.0357 0.91582C18.3767 0.387692 17.5282 0.000219727 16.4638 0.000219727C15.3977 0.000219727 14.5491 0.387724 13.8919 0.91582C12.0033 2.41518 1.92627 12.8078 0.0638687 14.7286C-0.0881873 14.9036 0.0491535 15.1782 0.278061 15.1782C1.20838 15.1782 3.36502 15.1815 4.66494 15.1815C5.12276 15.1815 5.25846 15.1014 5.54622 14.7924C5.834 14.4833 7.2663 12.9464 7.2663 12.9464C9.08774 10.9827 13.5302 6.64654 15.1538 5.27966C15.7637 4.76625 16.4537 4.7826 16.4635 4.7826C16.4733 4.7826 17.1633 4.76625 17.7732 5.27966C19.3968 6.64822 23.8392 10.9843 25.6606 12.9464C25.6606 12.9464 27.0929 14.4833 27.3807 14.7924C27.6685 15.1014 27.8042 15.1815 28.262 15.1815C29.5602 15.1815 31.7185 15.1782 32.6489 15.1782C32.8777 15.1799 33.0134 14.9036 32.8613 14.7286Z" fill="var(--fill-0, #222222)"/>
</g>
<defs>
<clipPath id="clip0_6392_442">
<rect width="160" height="32" fill="white"/>
</clipPath>
</defs>
</svg>
