<svg preserveAspectRatio="none" width="100%" height="100%" overflow="visible" style="display: block;" viewBox="0 0 86 60" fill="none" xmlns="http://www.w3.org/2000/svg">
<g id="Frame 1820549981">
<g id="Company Logo Detail">
<mask id="mask0_6392_345" style="mask-type:luminance" maskUnits="userSpaceOnUse" x="0" y="0" width="86" height="60">
<g id="Company Logo Detail_2">
<path id="Vector" d="M0 0H86V60H0V0Z" fill="var(--fill-0, white)"/>
</g>
</mask>
<g mask="url(#mask0_6392_345)">
<path id="Vector_2" fill-rule="evenodd" clip-rule="evenodd" d="M35.7771 6.54598C38.5511 3.66507 42.4136 1.87742 46.6851 1.87742C52.3631 1.87742 57.3176 5.03369 59.955 9.71989C62.315 8.66872 64.8712 8.12694 67.456 8.1301C77.6975 8.1301 86.0002 16.4789 86.0002 26.7782C86.0002 37.0775 77.6975 45.4266 67.456 45.4266C66.2054 45.4266 64.9841 45.3012 63.8027 45.0636C61.48 49.1937 57.0521 51.9849 51.9712 51.9849C49.916 51.9877 47.8875 51.5223 46.0404 50.6241C43.6858 56.1468 38.1978 60.0189 31.8037 60.0189C25.1434 60.0189 19.4671 55.8185 17.2898 49.9275C16.3193 50.1316 15.3302 50.2343 14.3384 50.2338C6.4089 50.2338 -0.0187174 43.7593 -0.0187174 35.7728C-0.0187174 30.42 2.86877 25.7467 7.16049 23.2467C6.2512 21.1595 5.78329 18.9078 5.78596 16.6323C5.78596 7.44674 13.266 -2.03451e-05 22.493 -2.03451e-05C27.9102 -2.03451e-05 32.7246 2.56709 35.7771 6.54598Z" fill="var(--fill-0, #777777)"/>
</g>
</g>
<path id="Vector_3" fill-rule="evenodd" clip-rule="evenodd" d="M12.4403 31.1247C12.3863 31.2652 12.4596 31.2945 12.477 31.3194C12.6385 31.4359 12.8025 31.5204 12.9681 31.6152C13.8452 32.078 14.6742 32.2138 15.5402 32.2138C17.3047 32.2138 18.4008 31.2787 18.4008 29.7727V29.7431C18.4008 28.3505 17.1634 27.8446 16.0038 27.4794L15.8524 27.4306C14.9779 27.1477 14.2232 26.9028 14.2232 26.3285V26.2992C14.2232 25.8074 14.6644 25.446 15.348 25.446C16.1081 25.446 17.0089 25.6977 17.5898 26.0175C17.5898 26.0175 17.7611 26.1278 17.8234 25.963C17.8572 25.8739 18.1508 25.0856 18.1821 25.0002C18.2156 24.9079 18.1568 24.8383 18.0964 24.8023C17.433 24.3994 16.5168 24.1253 15.5683 24.1253L15.3923 24.1259C13.7772 24.1259 12.6495 25.0994 12.6495 26.4926V26.5226C12.6495 27.9908 13.8935 28.4681 15.0588 28.7998L15.2459 28.8578C16.0945 29.1174 16.8275 29.3417 16.8275 29.9369V29.9665C16.8275 30.5115 16.3512 30.9164 15.5841 30.9164C15.2867 30.9164 14.3373 30.9114 13.3113 30.2645C13.1871 30.1924 13.1163 30.1404 13.0206 30.0821C12.97 30.0516 12.8436 29.9964 12.7886 30.1615L12.4403 31.1247ZM38.2715 31.1247C38.2175 31.2652 38.2908 31.2945 38.3088 31.3194C38.4697 31.4359 38.634 31.5204 38.7993 31.6152C39.6767 32.078 40.5057 32.2138 41.3714 32.2138C43.1359 32.2138 44.2323 31.2787 44.2323 29.7727V29.7431C44.2323 28.3505 42.9953 27.8446 41.8354 27.4794L41.684 27.4306C40.8094 27.1477 40.0544 26.9028 40.0544 26.3285V26.2992C40.0544 25.8074 40.4959 25.446 41.1799 25.446C41.9397 25.446 42.8401 25.6977 43.421 26.0175C43.421 26.0175 43.5923 26.1278 43.6549 25.963C43.6884 25.8739 43.9823 25.0856 44.0133 25.0002C44.0471 24.9079 43.988 24.8383 43.928 24.8023C43.2642 24.3994 42.3483 24.1253 41.3998 24.1253L41.2235 24.1259C39.6088 24.1259 38.4811 25.0994 38.4811 26.4926V26.5226C38.4811 27.9908 39.7247 28.4681 40.8904 28.7998L41.0771 28.8578C41.9261 29.1174 42.659 29.3417 42.659 29.9369V29.9665C42.659 30.5115 42.1824 30.9164 41.416 30.9164C41.1179 30.9164 40.1685 30.9114 39.1429 30.2645C39.0187 30.1924 38.946 30.1426 38.8518 30.0821C38.8199 30.062 38.671 30.004 38.6201 30.1615L38.2715 31.1247ZM55.9058 28.1744C55.9058 29.0251 55.7466 29.6968 55.4337 30.1703C55.1227 30.6398 54.6533 30.8682 53.9988 30.8682C53.3442 30.8682 52.8774 30.6401 52.5715 30.171C52.2627 29.6971 52.1059 29.0251 52.1059 28.1744C52.1059 27.3244 52.2627 26.6549 52.5715 26.1861C52.8774 25.7214 53.3442 25.4958 53.9988 25.4958C54.6533 25.4958 55.1227 25.7217 55.4337 26.1864C55.7472 26.6549 55.9058 27.3244 55.9058 28.1744ZM57.3793 26.5969C57.2342 26.1089 57.0089 25.6795 56.7089 25.3212C56.4084 24.9621 56.0282 24.6732 55.5775 24.464C55.1274 24.2545 54.5964 24.1483 53.9988 24.1483C53.4011 24.1483 52.8698 24.2545 52.4194 24.464C51.9694 24.6732 51.5888 24.9621 51.2883 25.3219C50.9887 25.6807 50.7627 26.1095 50.6182 26.5969C50.4744 27.0812 50.4014 27.612 50.4014 28.1744C50.4014 28.7371 50.4744 29.2683 50.6182 29.7519C50.7627 30.239 50.988 30.6681 51.2886 31.0276C51.5892 31.3874 51.9706 31.6738 52.4201 31.878C52.8708 32.0821 53.4017 32.1861 53.9988 32.1861C54.5961 32.1861 55.1265 32.0821 55.5768 31.878C56.0269 31.6738 56.4077 31.3874 56.7089 31.0276C57.0089 30.6694 57.2342 30.2396 57.3793 29.7519C57.5228 29.2674 57.5958 28.7365 57.5958 28.1744C57.5958 27.6127 57.5228 27.0815 57.3793 26.5969ZM69.4738 30.6404C69.4254 30.4977 69.2857 30.5516 69.2857 30.5516C69.0718 30.6332 68.8442 30.7088 68.6008 30.7466C68.3556 30.785 68.0841 30.8042 67.7936 30.8042C67.0816 30.8042 66.5142 30.5928 66.1094 30.1751C65.7026 29.757 65.4741 29.0815 65.4766 28.1678C65.4789 27.3373 65.6805 26.7116 66.0421 26.2346C66.4005 25.7608 66.9479 25.5175 67.6758 25.5175C68.2835 25.5175 68.7472 25.5878 69.233 25.7396C69.233 25.7396 69.3483 25.7897 69.4036 25.6382C69.5329 25.2812 69.6283 25.0273 69.7661 24.635C69.8053 24.5232 69.7093 24.4759 69.6742 24.4624C69.4833 24.388 69.0323 24.2661 68.6919 24.2148C68.3736 24.1662 68.0016 24.141 67.5866 24.141C66.9681 24.141 66.4166 24.2466 65.945 24.4558C65.4744 24.6647 65.0752 24.9533 64.7589 25.3121C64.4425 25.6716 64.2017 26.101 64.0424 26.5881C63.8828 27.0727 63.8022 27.6045 63.8022 28.1684C63.8022 29.3862 64.1318 30.3701 64.7819 31.0909C65.4343 31.8143 66.4128 32.1817 67.69 32.1817C68.4444 32.1817 69.2184 32.0295 69.7759 31.8109C69.7759 31.8109 69.8821 31.7598 69.836 31.6363L69.4738 30.6404ZM72.0509 27.3587C72.1214 26.8858 72.2513 26.493 72.4539 26.1861C72.7595 25.7214 73.2247 25.4652 73.8793 25.4652C74.5342 25.4652 74.9656 25.7217 75.2766 26.1864C75.482 26.4936 75.5718 26.9028 75.6069 27.3594L72.0509 27.3587ZM77.0095 26.32C76.884 25.8493 76.5749 25.3739 76.3717 25.1565C76.0509 24.8118 75.7368 24.5705 75.4248 24.4372C74.9733 24.2459 74.4877 24.1476 73.9972 24.1483C73.3749 24.1483 72.8094 24.2532 72.3508 24.4674C71.8916 24.6823 71.5057 24.9759 71.2032 25.3408C70.9001 25.7053 70.6729 26.1391 70.5278 26.6313C70.3825 27.1206 70.3091 27.654 70.3091 28.2173C70.3091 28.7901 70.3853 29.3241 70.5351 29.8042C70.6865 30.2885 70.9295 30.7135 71.2576 31.0673C71.5854 31.4224 72.0073 31.7009 72.5114 31.895C73.013 32.0887 73.6223 32.1892 74.3211 32.187C75.7617 32.1823 76.5193 31.8622 76.8322 31.6899C76.8875 31.659 76.9397 31.6057 76.8745 31.4523L76.5484 30.5424C76.4984 30.4066 76.3606 30.4558 76.3606 30.4558C76.0032 30.5887 75.4972 30.826 74.3139 30.8235C73.5408 30.8222 72.9681 30.5944 72.6081 30.2387C72.2399 29.8748 72.0591 29.3405 72.0285 28.5856L77.0133 28.5894C77.0133 28.5894 77.1448 28.5881 77.1584 28.4602C77.1637 28.4073 77.3294 27.4394 77.0095 26.32ZM32.1208 27.3587C32.1912 26.8858 32.3215 26.493 32.5237 26.1861C32.8297 25.7214 33.2943 25.4652 33.9495 25.4652C34.6043 25.4652 35.0357 25.7217 35.3467 26.1864C35.5519 26.4936 35.6416 26.9028 35.6767 27.3594L32.1208 27.3587ZM37.0794 26.32C36.9542 25.8493 36.6448 25.3739 36.4419 25.1565C36.1211 24.8118 35.8072 24.5705 35.495 24.4372C35.0435 24.246 34.5579 24.1478 34.0673 24.1483C33.445 24.1483 32.8796 24.2532 32.421 24.4674C31.9618 24.6823 31.5759 24.9759 31.2728 25.3408C30.9703 25.7053 30.7431 26.1391 30.5974 26.6313C30.4523 27.1206 30.3793 27.654 30.3793 28.2173C30.3793 28.7901 30.4548 29.3241 30.6056 29.8042C30.7567 30.2885 31 30.7135 31.3275 31.0673C31.6555 31.4224 32.0771 31.7009 32.5813 31.895C33.0832 32.0887 33.6919 32.1892 34.3913 32.187C35.8316 32.1823 36.5895 31.8622 36.9024 31.6899C36.9574 31.659 37.0098 31.6057 36.9444 31.4523L36.6185 30.5424C36.5683 30.4066 36.4305 30.4558 36.4305 30.4558C36.0734 30.5887 35.5673 30.826 34.3837 30.8235C33.611 30.8222 33.038 30.5944 32.678 30.2387C32.3101 29.8748 32.129 29.3405 32.0983 28.5856L37.0835 28.5894C37.0835 28.5894 37.2149 28.5881 37.2285 28.4602C37.2339 28.4073 37.3995 27.4394 37.0794 26.32ZM21.3442 30.6133C21.1486 30.4577 21.1214 30.4195 21.0566 30.3184C20.9577 30.1662 20.9071 29.9495 20.9071 29.6719C20.9071 29.2356 21.0525 28.9211 21.3521 28.71C21.349 28.7107 21.782 28.3376 22.7981 28.3509C23.2514 28.3589 23.7036 28.3973 24.1517 28.4659V30.7248H24.1524C24.1524 30.7248 23.5187 30.8606 22.8053 30.9035C21.7914 30.9643 21.3411 30.6124 21.3442 30.6133ZM23.3281 27.1206C23.1258 27.1057 22.8638 27.0985 22.5497 27.0985C22.1227 27.0985 21.7096 27.1514 21.3218 27.2554C20.9324 27.36 20.5822 27.5219 20.281 27.7365C19.98 27.9509 19.7325 28.2313 19.5576 28.5563C19.3809 28.8843 19.2908 29.2696 19.2908 29.7015C19.2908 30.1423 19.3676 30.5241 19.5193 30.8361C19.6677 31.1453 19.8912 31.4128 20.1694 31.6143C20.4466 31.8153 20.7886 31.9627 21.1852 32.0528C21.5768 32.142 22.0206 32.187 22.5054 32.187C23.0174 32.187 23.5266 32.1442 24.0199 32.0613C24.4402 31.9891 24.8588 31.908 25.2756 31.8181C25.4419 31.78 25.6252 31.7299 25.6252 31.7299C25.7485 31.6987 25.739 31.5673 25.739 31.5673L25.7361 27.0223C25.7361 26.0254 25.4694 25.2869 24.9438 24.8282C24.4207 24.3717 23.6505 24.141 22.654 24.141C22.2797 24.141 21.6786 24.1914 21.3177 24.2636C21.3177 24.2636 20.2292 24.4741 19.781 24.8241C19.781 24.8241 19.6824 24.8846 19.7361 25.0216L20.0892 25.9668C20.1331 26.0894 20.2529 26.0475 20.2529 26.0475C20.2529 26.0475 20.2905 26.0327 20.3347 26.0065C21.2936 25.4867 22.507 25.5021 22.507 25.5021C23.0455 25.5021 23.4605 25.6108 23.7393 25.8235C24.0114 26.0317 24.1495 26.3452 24.1495 27.0078V27.2179C23.7219 27.1562 23.3281 27.1206 23.3281 27.1206ZM63.5414 24.5601C63.5486 24.5434 63.5524 24.5256 63.5525 24.5075C63.5526 24.4894 63.549 24.4714 63.5421 24.4548C63.5351 24.4381 63.5248 24.4229 63.5118 24.4103C63.4988 24.3976 63.4834 24.3877 63.4665 24.3811C63.3815 24.349 62.9577 24.2598 62.6309 24.2396C62.0041 24.2006 61.6568 24.3058 61.3452 24.4457C61.0361 24.5846 60.6938 24.8093 60.5029 25.0654L60.5022 24.4592C60.5022 24.3761 60.4431 24.309 60.3591 24.309H59.0809C58.9981 24.309 58.9381 24.3761 58.9381 24.4592V31.8732C58.9382 31.9132 58.9541 31.9516 58.9825 31.9799C59.0109 32.0081 59.0493 32.0241 59.0895 32.0241H60.3995C60.4396 32.0241 60.478 32.0081 60.5064 31.9798C60.5347 31.9515 60.5506 31.9132 60.5506 31.8732V28.1697C60.5506 27.6722 60.6056 27.1766 60.7153 26.865C60.8234 26.5566 60.9703 26.3109 61.1524 26.1341C61.3249 25.9635 61.536 25.8369 61.768 25.7649C61.9855 25.7026 62.2106 25.671 62.4368 25.671C62.6976 25.671 62.9845 25.7378 62.9845 25.7378C63.0806 25.7485 63.134 25.6899 63.1666 25.6035C63.2522 25.3764 63.495 24.6955 63.5414 24.5601Z" fill="var(--fill-0, #FFFFFE)"/>
<path id="Vector_4" fill-rule="evenodd" clip-rule="evenodd" d="M51.246 21.1242C51.0842 21.0755 50.9197 21.0365 50.7532 21.0076C50.5293 20.9704 50.3026 20.9528 50.0756 20.9553C49.1739 20.9553 48.4631 21.2092 47.964 21.7108C47.4685 22.2086 47.1312 22.967 46.9622 23.9648L46.9012 24.3016H45.7694C45.7694 24.3016 45.6312 24.2959 45.6022 24.4462L45.4163 25.4796C45.4034 25.5785 45.446 25.6402 45.5788 25.6396H46.6805L45.5627 31.8598C45.4751 32.3608 45.3749 32.7729 45.264 33.0851C45.1546 33.3932 45.0478 33.6242 44.9163 33.7918C44.789 33.954 44.6682 34.0735 44.4599 34.1431C44.288 34.2007 44.0902 34.2272 43.8733 34.2272C43.7526 34.2272 43.592 34.207 43.4735 34.1834C43.355 34.1601 43.2934 34.1336 43.2046 34.0965C43.2046 34.0965 43.0753 34.0473 43.0244 34.1765C42.983 34.282 42.6894 35.087 42.6546 35.1866C42.6192 35.2849 42.6689 35.3624 42.7314 35.3847C42.8781 35.437 42.9871 35.4704 43.1869 35.5174C43.4644 35.5826 43.6982 35.5867 43.9173 35.5867C44.3762 35.5867 44.7943 35.5224 45.141 35.3977C45.49 35.2719 45.7937 35.053 46.0623 34.7565C46.3528 34.4367 46.5355 34.1018 46.7103 33.645C46.8831 33.1922 47.0304 32.6302 47.1483 31.9752L48.2716 25.6396H49.9138C49.9138 25.6396 50.0522 25.6447 50.081 25.495L50.2668 24.4616C50.2798 24.3627 50.2374 24.3009 50.1041 24.3016H48.5102C48.5181 24.2656 48.5905 23.7067 48.7735 23.1806C48.8515 22.9559 48.9985 22.7748 49.123 22.6503C49.2393 22.5318 49.3825 22.443 49.5405 22.3913C49.7138 22.338 49.8943 22.312 50.0756 22.3145C50.2257 22.3145 50.373 22.3324 50.4852 22.3557C50.6398 22.3885 50.6998 22.4058 50.7403 22.4178C50.9027 22.4673 50.9245 22.4194 50.9565 22.3409L51.3376 21.2975C51.3768 21.1853 51.2814 21.138 51.246 21.1242ZM28.9723 31.8731C28.9723 31.9563 28.9128 32.024 28.8294 32.024H27.5073C27.4236 32.024 27.3642 31.9563 27.3642 31.8731V21.2656C27.3642 21.1828 27.4236 21.1157 27.5073 21.1157H28.8294C28.9128 21.1157 28.9723 21.1828 28.9723 21.2656V31.8731Z" fill="var(--fill-0, #FFFFFE)"/>
</g>
</svg>
