<svg preserveAspectRatio="none" width="100%" height="100%" overflow="visible" style="display: block;" viewBox="0 0 160.092 32.154" fill="none" xmlns="http://www.w3.org/2000/svg">
<g id="Group">
<path id="Vector" d="M126.044 22.9818C124.345 22.859 122.949 21.9991 123.374 19.7266C123.495 19.2352 123.738 18.6824 124.042 18.3139C124.042 18.3139 121.675 18.5596 119.37 22.859C117.61 26.1143 117.913 29.6152 120.037 29.6767C121.736 29.7381 123.981 27.8955 125.316 24.8859C125.68 24.2103 125.922 23.5961 126.044 22.9818ZM89.2141 22.9204C87.0298 22.9818 86.1197 21.0778 86.4837 19.5423C86.6051 18.9895 86.8478 18.3753 87.3939 17.9454C87.3332 17.9454 87.3332 17.9454 87.2725 17.9454C85.0275 18.1911 83.45 20.525 82.4185 22.6747C80.7803 25.9914 81.023 29.431 83.0859 29.5538C84.7848 29.6152 86.9691 27.8341 88.3647 24.8859C88.6074 24.3945 89.0321 23.4118 89.2141 22.9204ZM72.3465 18.5596C71.2543 18.621 67.1891 18.6824 64.8228 18.7438C66.461 19.358 69.1307 21.2007 69.7981 25.1316C69.9195 24.8245 71.497 20.6479 72.3465 18.5596ZM157.777 21.9377C158.02 22.4905 158.748 23.8417 159.112 24.8859C159.536 26.1757 159.476 26.9742 159.415 27.4041C159.051 30.2295 157.17 31.8878 153.954 31.9492C152.134 31.9492 150.678 31.5193 149.95 30.2294C149.586 29.6152 149.525 28.8782 150.071 28.1412C150.314 27.8341 150.678 27.527 150.799 27.4041C151.042 27.2199 151.224 27.1584 151.345 27.1584C151.77 27.1584 151.891 27.4041 152.013 28.264C152.195 29.3081 152.802 29.9223 153.712 29.9223C154.015 29.9223 155.107 29.8609 155.411 28.7554C155.653 27.9569 155.411 27.0356 154.804 25.8686C154.015 24.3945 153.59 23.1661 153.651 21.9377C152.923 22.7976 152.134 23.7803 151.406 24.763C148.554 28.5097 147.219 30.5366 145.035 31.3964C143.943 31.8264 142.79 31.8878 142.001 31.6421C140.06 31.0893 139.938 29.3081 140.06 28.1412C140.242 26.7899 140.909 24.763 142.123 22.122C138.422 25.6229 134.902 30.168 134.235 30.9051C133.628 31.6421 132.9 31.3964 132.475 31.0893C131.99 30.7822 131.808 30.6594 131.323 30.2909C130.776 29.9223 130.655 29.7381 130.898 28.7554C131.444 26.5442 132.718 22.9818 133.932 20.4022C132.597 21.3235 131.383 21.8763 129.927 22.1834C129.745 23.2275 129.381 24.2717 128.714 25.3772C126.287 29.6152 121.979 32.3177 117.792 31.3964C115.729 30.9665 114.516 29.3696 114.334 27.3427C112.817 29.3081 111.543 30.1066 110.329 30.7208C108.812 31.4579 107.477 31.2122 107.113 31.1508C104.99 30.6594 104.868 28.8782 105.111 27.4655C105.172 27.1584 105.232 26.7285 105.414 26.2371C103.291 28.8168 101.288 30.2909 99.6502 30.9665C98.8007 31.335 97.5872 31.5807 96.4344 31.335C94.9782 31.0279 94.1288 29.9223 94.2501 27.9569C94.4322 25.6843 96.0097 22.7976 99.5289 18.9281C99.0435 18.6824 98.7401 18.2525 98.6187 17.8225C97.5873 19.1124 95.2816 20.7093 93.0973 21.692C92.9153 22.9818 92.4906 24.2103 91.8231 25.4387C89.5175 29.6152 84.9669 32.3792 80.7803 31.2736C77.2005 30.2909 76.2903 26.0529 78.778 21.8763C79.6881 20.3408 80.8409 19.0509 82.1758 18.0682C79.6881 18.1911 77.0184 18.2525 77.0184 18.2525C77.0184 18.2525 74.2881 24.5174 71.7397 30.9665C71.5577 31.4579 71.0723 32.0721 70.1622 31.4579C69.7374 31.1508 69.4341 30.9665 68.8273 30.4751C68.3419 30.1066 68.2812 29.8609 68.2812 29.3081C68.2812 24.9473 66.5823 21.0164 62.9418 19.8494C61.5463 23.2275 59.9688 27.2199 58.4519 31.1508C58.1485 31.9492 57.4204 31.8264 56.6923 31.335C56.2069 31.0279 55.9035 30.7822 55.4788 30.4137C54.8114 29.8609 54.69 29.6767 55.0541 28.6325C55.4181 27.5884 56.9957 23.3504 58.6339 18.9281C58.2092 18.9281 56.935 18.9895 56.935 18.9895C56.5103 18.9895 56.2676 18.9281 56.1462 18.5596C55.9642 18.0682 55.8429 17.8225 55.7215 17.454C55.5395 17.0241 55.6002 16.5941 56.3889 16.5327C56.6923 16.5327 58.1485 16.4713 59.6047 16.4099C62.2744 9.65363 65.7329 1.91467 66.3396 0.686263C66.7644 -0.173621 67.4318 -0.112201 68.0992 0.256321C68.5846 0.502002 69.1914 0.870524 69.9801 1.42331C70.7082 1.91467 71.0116 2.22177 70.4655 3.38876C70.3442 3.57302 67.2498 10.0222 64.4587 16.3485C66.0363 16.287 71.679 16.1028 73.1959 16.1028C75.8656 9.53079 78.6567 3.32734 79.0814 2.40603C79.3241 1.79183 79.6275 1.36189 80.5983 1.85325C81.6904 2.46745 81.9331 2.52887 82.6612 2.95882C83.3286 3.32734 83.5713 3.69586 83.1466 4.49432C82.9646 4.92427 80.4769 10.0836 77.9285 15.9799C79.3241 15.9185 84.7241 15.7957 86.3017 15.7957C86.7871 15.7957 88.8501 15.6728 89.8209 15.9799C91.3377 16.4099 92.2478 17.3926 92.7939 18.7438C92.9153 18.9895 93.0366 19.5423 93.0973 19.8494C95.7063 18.4982 98.194 16.287 99.5895 13.8916C99.8929 13.4003 100.196 13.3389 100.742 13.5845C101.228 13.7688 101.106 14.1987 100.985 14.5058C100.742 15.2429 100.742 15.9799 101.046 16.4713C101.349 16.9627 101.652 17.3926 103.655 17.6383C104.079 17.6997 104.322 17.884 104.383 18.1911C104.504 18.4982 104.504 18.7438 104.019 19.2966C101.47 22.1834 99.8929 24.0874 98.9828 26.36C97.8906 29.1239 99.1041 29.001 99.7109 28.8782C101.288 28.5097 104.868 25.0701 107.417 20.6479C108.327 18.4367 109.358 16.0413 110.329 13.8302C108.933 13.8916 108.145 13.9531 107.963 13.9531C107.356 14.0145 107.235 13.7074 107.174 13.4617C107.053 13.216 106.992 12.9703 106.871 12.6018C106.749 12.2333 106.749 11.8648 107.477 11.8033C107.72 11.8033 109.237 11.6805 111.421 11.4962C112.513 9.10085 113.423 7.19682 113.727 6.5212C114.152 5.59989 114.698 5.41563 115.547 5.90699C116.336 6.33693 116.457 6.45978 117.125 6.88972C117.731 7.25824 118.035 7.56534 117.549 8.54807C117.125 9.46937 116.761 10.3293 116.336 11.1277C120.704 10.8206 125.68 10.5135 128.532 10.5135C129.381 10.5135 129.563 10.6364 129.745 11.0049C129.927 11.4348 130.048 11.6805 130.23 12.1104C130.412 12.6018 130.291 12.9703 129.745 12.9703C124.042 13.0932 119.006 13.3389 115.244 13.5231C113.12 18.0682 111.542 21.5078 109.783 26.36C108.812 28.9396 110.268 28.5711 110.45 28.5097C112.392 27.8955 114.334 24.5788 116.639 21.1392C119.309 17.2083 123.131 15.4271 126.469 16.287C127.682 16.5941 128.592 17.0855 129.199 18.1296C129.381 18.3753 129.563 18.8053 129.684 19.1124C129.806 19.5423 129.927 20.0337 129.988 20.5865C131.929 20.0337 133.628 19.1124 135.509 17.2083C135.934 16.7784 136.359 16.5941 137.147 17.1469C137.633 17.5154 137.997 17.6997 138.422 18.0682C139.089 18.5596 139.392 18.8053 138.725 19.9723C138.361 20.5865 137.329 22.5519 135.813 26.4214C139.21 22.2448 143.397 18.2525 144.307 17.6383C144.55 17.454 144.974 17.2083 145.763 17.6997C146.249 18.0068 146.491 18.1911 147.037 18.5596C147.705 19.0509 147.887 19.4195 147.462 20.3408C147.037 21.2621 145.521 24.0874 144.671 26.7899C144.004 29.001 144.792 29.1239 145.338 28.9396C146.127 28.6939 147.098 27.6498 149.343 24.7016C151.285 22.1834 153.044 20.0951 155.107 18.1296C155.653 17.5769 156.503 16.8398 157.049 16.4099C157.473 16.1028 157.959 15.7957 158.323 15.7342C158.566 15.7342 158.748 15.7957 159.051 16.0413C159.294 16.287 159.354 16.3485 159.536 16.4713C159.9 16.7784 160.022 16.9627 160.083 17.2083C160.143 17.6383 159.901 17.7611 159.415 18.1296L159.172 18.3139C158.141 19.2352 157.049 20.3408 157.777 21.9377ZM23.2604 13.7688C24.7166 13.5231 25.8087 12.1719 25.6874 10.6978C25.566 9.34653 24.5345 8.42523 23.2604 8.42523C23.139 8.42523 22.957 8.42523 22.8356 8.48665C21.3794 8.73233 20.2873 10.0836 20.4086 11.5577C20.53 12.9089 21.5008 13.8302 22.8356 13.8302C22.957 13.7688 23.139 13.7688 23.2604 13.7688ZM49.1079 20.8321C49.7147 19.6652 49.472 19.358 48.7439 18.8667C48.1371 18.4367 48.0158 18.3753 47.5911 18.0682C46.8023 17.5154 46.1955 17.7611 45.5888 18.3139C43.4045 20.2794 40.2494 23.5961 37.883 26.4214C39.2786 22.6133 40.0674 20.955 40.5528 19.788C40.9775 18.8053 40.8561 18.4982 40.3101 18.1296C39.946 17.884 39.5213 17.5769 38.8538 17.1469C38.2471 16.7784 37.7617 16.9012 37.337 17.2698C35.8808 18.5596 31.6335 22.7976 28.7818 26.0529C30.1773 22.7362 31.4515 19.9108 31.8762 18.9281C32.3009 18.0682 32.3616 17.6383 31.6335 17.0855C31.0874 16.717 30.602 16.4099 30.1166 16.1028C29.2065 15.55 28.8425 15.9185 28.4784 16.4713C28.3571 16.717 28.1144 17.0241 27.8717 17.454C23.8671 24.2717 20.5907 28.0183 19.2558 28.4483C18.7097 28.6325 18.4064 28.5097 18.285 28.3868C17.7996 27.9569 18.2243 26.6056 18.4064 26.1143C19.0738 24.2103 20.4086 21.2621 21.8042 18.3753C22.3502 17.2698 22.1682 16.9627 21.4401 16.4099C20.9547 16.1028 20.53 15.7957 19.9839 15.4886C19.1345 14.9972 18.6491 15.2429 18.1637 16.2256C17.0715 18.5596 14.2198 24.4559 13.6737 27.6498C13.3097 30.1066 14.3411 31.1508 15.7367 31.4579C16.7681 31.7035 17.9816 31.3964 18.6491 31.0893C20.1053 30.4137 22.1682 28.6325 24.9593 24.7016C24.4132 26.1143 23.8671 27.7112 23.5637 28.6939C23.1997 29.8609 23.4424 30.1066 24.1098 30.5366C24.4132 30.7208 24.5952 30.8437 25.0199 31.0893C25.5053 31.3964 26.1728 31.6421 26.7795 30.9051C27.5683 29.9223 31.9976 24.5788 35.456 21.2621C34.6673 23.3504 33.4538 26.5442 32.9077 28.6325C32.665 29.5538 32.847 29.8609 33.6358 30.3523L34.7886 31.0893C35.0313 31.2736 35.8201 31.5807 36.4268 30.8437C37.0336 30.1066 40.7348 25.4387 43.7079 22.4905C42.6157 25.0701 41.9483 27.0356 41.7663 28.5097C41.7056 29.001 41.3415 31.5807 44.0719 32.0106C44.9213 32.1335 46.4989 32.0106 47.5911 30.9051C47.8944 30.598 48.0158 30.2909 47.9551 30.1066C47.8944 29.8609 47.7124 29.7995 47.409 29.7995C47.1663 29.7995 46.9236 29.7381 46.6203 29.6152C45.6495 29.1239 46.1349 27.8955 46.3169 27.1584C47.227 24.4559 48.3192 22.3062 49.1079 20.8321ZM18.0423 5.78415C16.04 10.2678 7.72757 29.5538 6.99947 31.335C6.63542 32.0721 6.15002 32.4406 5.17922 31.8878C4.26909 31.3964 3.72302 31.0893 2.99492 30.598C2.08479 30.0452 2.38817 29.3081 2.63087 28.6939C5.23989 23.1047 6.87812 19.0509 8.27364 16.0413C10.7006 10.8206 11.9141 8.36381 12.9456 6.15267C8.94107 6.58262 3.60167 7.07398 2.44884 7.25824C0.992643 7.4425 0.871293 6.95114 0.567918 6.09125C0.325218 5.41563 0.385893 5.72273 0.203868 5.29279C-0.038832 4.49432 -0.342207 3.75728 1.11399 3.57302C4.32977 3.26592 19.4378 1.91467 31.0874 1.66899C32.0582 1.66899 32.4223 1.66899 32.7863 2.34461C33.0897 3.02024 33.1504 2.95882 33.4538 3.69586C33.7571 4.4329 33.2717 4.80143 32.5436 4.86285C27.5683 5.10853 22.775 5.47705 18.0423 5.78415Z" fill="var(--fill-0, #717171)"/>
</g>
</svg>
